<?xml version="1.0" standalone="no"?><!DOCTYPE svg PUBLIC "-//W3C//DTD SVG 1.1//EN" "http://www.w3.org/Graphics/SVG/1.1/DTD/svg11.dtd"><svg t="1563377356034" class="icon" viewBox="0 0 1024 1024" version="1.1" xmlns="http://www.w3.org/2000/svg" p-id="6439" xmlns:xlink="http://www.w3.org/1999/xlink" width="32" height="32"><defs><style type="text/css"></style></defs><path d="M739.555556 369.777778l-113.777778 0 0-56.888889 113.777778 0c15.701333 0 28.444444 12.714667 28.444444 28.444444 0 15.701333-12.743111 28.444444-28.444444 28.444444zM654.222222 113.777778c0-47.132444-38.200889-85.333333-85.333333-85.333333l-142.222222 0c-47.132444 0-85.333333 38.200889-85.333333 85.333333l0 170.666667-28.444444 0 0-170.666667c0-62.833778 50.944-113.777778 113.777778-113.777778l142.222222 0c62.833778 0 113.777778 50.944 113.777778 113.777778l0 170.666667-28.444444 0 0-170.666667zM369.777778 369.777778l-113.777778 0c-15.729778 0-28.444444-12.743111-28.444444-28.444444 0-15.729778 12.714667-28.444444 28.444444-28.444444l113.777778 0 0 56.888889zM497.777778 440.888889c-55.011556 0-99.555556-44.572444-99.555556-99.555556 0-55.011556 44.544-99.555556 99.555556-99.555556 54.983111 0 99.555556 44.544 99.555556 99.555556 0 54.983111-44.572444 99.555556-99.555556 99.555556zM497.777778 284.444444c-31.402667 0-56.888889 25.486222-56.888889 56.888889s25.486222 56.888889 56.888889 56.888889 56.888889-25.486222 56.888889-56.888889-25.486222-56.888889-56.888889-56.888889zM401.408 401.237333c20.081778 32.227556 55.580444 53.873778 96.369778 53.873778s76.259556-21.646222 96.369778-53.873778c50.631111 11.52 88.519111 56.632889 88.519111 110.762667l0 284.444444c0 52.935111-36.352 97.052444-85.333333 109.738667l0-154.197333c0-54.983111-44.572444-99.555556-99.555556-99.555556-55.011556 0-99.555556 44.572444-99.555556 99.555556l0 154.197333c-49.009778-12.686222-85.333333-56.803556-85.333333-109.738667l0-284.444444c0-54.129778 37.888-99.242667 88.519111-110.762667zM497.777778 682.666667c39.281778 0 71.111111 31.829333 71.111111 71.111111l0 199.111111c0 39.281778-31.829333 71.111111-71.111111 71.111111s-71.111111-31.829333-71.111111-71.111111l0-199.111111c0-39.281778 31.829333-71.111111 71.111111-71.111111z" p-id="6440" fill="#bfcbd9"></path></svg>