<?xml version="1.0" standalone="no"?><!DOCTYPE svg PUBLIC "-//W3C//DTD SVG 1.1//EN" "http://www.w3.org/Graphics/SVG/1.1/DTD/svg11.dtd"><svg t="1563377511759" class="icon" viewBox="0 0 1024 1024" version="1.1" xmlns="http://www.w3.org/2000/svg" p-id="8204" xmlns:xlink="http://www.w3.org/1999/xlink" width="32" height="32"><defs><style type="text/css"></style></defs><path d="M933.237561 340.38581c-4.68962-5.355769-15.550857-18.066151-29.865751-34.800205-43.093383-50.365452-115.195497-134.661899-148.391391-170.441241-13.7161-14.804363-30.776534-33.210084-63.823328-34.515598-2.406169-0.081545-9.733201-0.35396-102.38918-0.35396-105.339979 0-254.124903 0.33957-254.057749 0.33957-15.754918 0-39.775432 3.574776-66.243687 34.555371-19.412438 22.756771-49.563796 57.570167-80.082304 92.805878-38.87884 44.887366-78.327894 90.453872-96.870322 112.530504-32.230947 37.328691-33.033603 89.394191-2.107171 135.912451l2.053208 2.719156c36.513644 42.535361 115.9288 133.846052 209.727205 241.686736l145.795551 167.694703c26.929342 31.021168 48.190927 35.208129 65.441031 35.208129 18.121114 0 38.593234-4.268506 65.441031-35.194938l150.797359-173.472586c88.714052-101.995447 163.83432-188.357494 204.996812-236.290395C961.146039 445.602274 968.97613 383.477994 933.237561 340.38581zM891.096932 442.869926c-40.795341 47.497397-115.833865 133.777699-204.452981 235.650829l-150.81155 173.500167c-13.919962 16.027333-19.398248 16.027333-23.408529 16.027333-3.778838 0-9.488367 0-23.395138-16.027333l-145.822133-167.735475c-92.696752-106.577141-171.337833-196.990241-208.327754-240.041652-16.366903-25.420765-16.815599-49.29138-0.979136-67.629747 18.691327-22.239721 57.924127-67.548202 96.571525-112.177544 30.627634-35.358027 60.873728-70.293941 80.340329-93.104675 12.84609-15.034806 19.493983-15.034806 23.966351-15.034806 0 0 148.704378-0.33957 253.989395-0.33957 79.728344 0 97.087575 0.204062 100.283008 0.313188 8.659329 0.33957 11.949698 2.528486 25.094586 16.734054 32.435009 34.963295 104.102618 118.729501 146.909395 168.782965 14.504566 16.951307 25.5157 29.811788 29.784006 34.692079C907.137457 396.121222 903.889059 427.428196 891.096932 442.869926zM682.614084 394.823901l-170.78201 218.719908-170.561759-219.314505c-1.742019-2.740542-2.268262-2.740542-4.739587-2.740542l-83.213381 0 0 38.453529 1.998045 0c15.731534 0 21.56338 4.092026 28.017604 12.705386 0.633371 0.865014 1.377866 1.850146 2.862859 3.6871 37.509169 50.997823 184.517497 229.654694 226.009366 285.296169 41.478677-55.681248 188.393269-234.461635 226.4011-285.999892 0.918977-1.092259 1.634892-2.0644 2.268262-2.916023 6.494996-8.654132 12.341233-12.773739 28.003414-12.773739l1.890918 0 0-38.518884-82.915583 0C685.516716 391.422408 684.814991 391.422408 682.614084 394.823901z" p-id="8205" fill="#bfcbd9"></path></svg>