<?xml version="1.0" standalone="no"?><!DOCTYPE svg PUBLIC "-//W3C//DTD SVG 1.1//EN" "http://www.w3.org/Graphics/SVG/1.1/DTD/svg11.dtd"><svg t="1563377658561" class="icon" viewBox="0 0 1024 1024" version="1.1" xmlns="http://www.w3.org/2000/svg" p-id="9466" xmlns:xlink="http://www.w3.org/1999/xlink" width="32" height="32"><defs><style type="text/css"></style></defs><path d="M998.870372 450.359652L552.428633 37.13113l-0.26713-0.200347-1.558261-1.246609-0.601044-0.467478-1.892174-1.380174-0.289391-0.222609-2.203826-1.446956-0.022261-0.022261a63.532522 63.532522 0 0 0-74.50713 5.097739L24.756981 450.359652a57.878261 57.878261 0 0 0-5.832348 83.812174c22.394435 24.665043 61.417739 27.225043 87.062261 5.632l42.295652-35.617391v348.560695c0 82.075826 24.887652 148.880696 110.146783 148.880696h92.16c34.05913 0 61.68487-26.601739 61.684869-59.392V661.837913c0-16.562087 14.024348-30.052174 31.209739-30.052174h136.592696c17.229913 0 31.276522 13.490087 31.276522 30.052174v273.430261c0 4.051478 0.422957 8.102957 1.29113 12.109913l1.491478 6.967652c5.965913 27.514435 31.187478 47.282087 60.416 47.282087h90.646261c85.25913 0 110.146783-66.80487 110.146783-148.880696V504.208696l42.295652 35.59513a62.998261 62.998261 0 0 0 40.603826 14.647652c17.14087 0 34.259478-6.856348 46.458435-20.279652a57.878261 57.878261 0 0 0-5.832348-83.812174z" p-id="9467" fill="#bfcbd9"></path></svg>