<?xml version="1.0" standalone="no"?><!DOCTYPE svg PUBLIC "-//W3C//DTD SVG 1.1//EN" "http://www.w3.org/Graphics/SVG/1.1/DTD/svg11.dtd"><svg t="1563377397206" class="icon" viewBox="0 0 1114 1024" version="1.1" xmlns="http://www.w3.org/2000/svg" p-id="7331" xmlns:xlink="http://www.w3.org/1999/xlink" width="34.8125" height="32"><defs><style type="text/css"></style></defs><path d="M-6.0e-06 47.371914M292.03214 1006.354108c-29.984918 0-54.379515-24.394596-54.379515-54.380538L237.652625 72.02643c0-29.985942 24.394596-54.381561 54.379515-54.381561l468.720288 0 204.894553 204.889437-0.186242 0.918929 0 728.519312c0 29.984918-24.393573 54.380538-54.378491 54.380538L292.03214 1006.353085zM350.2204 61.537542c-37.204343 0-67.473741 30.272467-67.473741 67.481927l0 765.963109c0 37.208437 30.268374 67.480904 67.473741 67.480904l502.672564 0c37.205367 0 67.475787-30.272467 67.475787-67.480904L920.368752 289.10549 709.156306 289.10549c-7.585769 0-13.757329-6.17463-13.757329-13.764492L695.398977 61.537542 350.2204 61.537542zM738.40649 198.720947c0 26.009374 21.160949 47.169299 47.170323 47.169299l141.571343 0L738.40649 57.135278 738.40649 198.720947zM578.955942 827.469951 578.955942 749.056044 448.399467 749.056044 448.399467 705.039551 578.955942 705.039551 578.955942 630.834502 414.964984 630.834502 414.964984 588.605725 578.955942 588.605725 578.955942 571.432601 418.047182 410.525887 448.473145 380.098901 600.699152 532.327978 752.927205 380.098901 783.353168 410.525887 621.982897 571.888995 621.982897 588.605725 785.979995 588.605725 785.979995 630.834502 621.982897 630.834502 621.982897 705.039551 753.341644 705.039551 753.341644 749.056044 621.982897 749.056044 621.982897 827.469951Z" p-id="7332" fill="#bfcbd9"></path></svg>