<?xml version="1.0" standalone="no"?><!DOCTYPE svg PUBLIC "-//W3C//DTD SVG 1.1//EN" "http://www.w3.org/Graphics/SVG/1.1/DTD/svg11.dtd"><svg t="1563377682109" class="icon" viewBox="0 0 1024 1024" version="1.1" xmlns="http://www.w3.org/2000/svg" p-id="10313" xmlns:xlink="http://www.w3.org/1999/xlink" width="32" height="32"><defs><style type="text/css"></style></defs><path d="M1012.550182 612.027267a512.869083 512.869083 0 0 0 0.579388-197.102412L910.467466 378.395797a419.559962 419.559962 0 0 0-21.74086-52.089775l46.90287-98.965055A513.172572 513.172572 0 0 0 796.659033 88.287754l-100.179011 47.620208a414.097157 414.097157 0 0 0-50.241251-20.526903L609.075145 10.84284a514.331349 514.331349 0 0 0-197.102412 0.579388l-37.687835 105.972895a410.758777 410.758777 0 0 0-46.902869 19.754385L226.23737 89.060272a512.786313 512.786313 0 0 0-139.522241 140.708609L135.190624 331.575697a412.607302 412.607302 0 0 0-18.374889 44.750856L11.035969 413.848848a514.993507 514.993507 0 0 0 0.579389 199.199246l105.227967 37.411936A416.221582 416.221582 0 0 0 135.190624 694.990166l-47.730567 100.39973a513.172572 513.172572 0 0 0 141.205227 141.177637l99.158184-47.151178a412.579712 412.579712 0 0 0 46.323481 19.478485l36.804957 103.489802a513.558831 513.558831 0 0 0 199.199246 0.579389l36.280749-102.082716a412.883201 412.883201 0 0 0 49.661862-20.251004l98.192536 46.65456a513.172572 513.172572 0 0 0 140.708609-139.522241l-46.406251-97.530379a417.711437 417.711437 0 0 0 21.65809-51.869056zM513.172572 664.917149a151.744578 151.744578 0 1 1 151.744577-151.744577 151.744578 151.744578 0 0 1-151.744577 151.744577z" fill="#bfcbd9" p-id="10314"></path></svg>