<?xml version="1.0" standalone="no"?><!DOCTYPE svg PUBLIC "-//W3C//DTD SVG 1.1//EN" "http://www.w3.org/Graphics/SVG/1.1/DTD/svg11.dtd"><svg t="1563377623201" class="icon" viewBox="0 0 1024 1024" version="1.1" xmlns="http://www.w3.org/2000/svg" p-id="8583" xmlns:xlink="http://www.w3.org/1999/xlink" width="32" height="32"><defs><style type="text/css"></style></defs><path d="M372.40415 442.50216l-247.496837 0c-39.21821 0-52.147684-21.028942-55.899124-30.066783s-9.463536-33.023114 18.273179-60.758806l79.913051-79.913051c11.367909-11.381212 29.782304-11.381212 41.150212 0 11.366885 11.366885 11.366885 29.782304 0 41.150212l-71.387887 71.387887 235.447407 0c16.08535 0 29.100782 13.015432 29.100782 29.100782C401.504932 429.485705 388.4895 442.50216 372.40415 442.50216z" p-id="8584" fill="#bfcbd9"></path><path d="M539.845697 784.490068c-7.444553 0-14.891152-2.841721-20.573571-8.525164-11.367909-11.366885-11.367909-29.782304 0-41.150212l71.415516-71.387887L94.925465 663.426805c-16.08535 0-29.100782-13.015432-29.100782-29.100782 0-16.084327 13.015432-29.100782 29.100782-29.100782l507.811608 0c39.216163 0 52.147684 21.030989 55.899124 30.067806s9.463536 33.022091-18.274202 60.758806l-79.939657 79.913051C554.737872 781.648346 547.291273 784.490068 539.845697 784.490068z" p-id="8585" fill="#bfcbd9"></path><path d="M712.346469 560.551786c-134.533043 0-243.973594-109.467157-243.973594-244.001223 0-134.576021 109.440551-244.043179 243.973594-244.043179 134.561695 0 244.030899 109.468181 244.030899 244.043179C956.377368 451.084629 846.908164 560.551786 712.346469 560.551786zM712.346469 130.707924c-102.4483 0-185.772031 83.35136-185.772031 185.842639 0 102.421694 83.323731 185.800683 185.772031 185.800683 102.476953 0 185.830359-83.378989 185.830359-185.800683C898.176828 214.059284 814.823422 130.707924 712.346469 130.707924z" p-id="8586" fill="#bfcbd9"></path><path d="M842.27668 346.787214 708.707592 346.787214c-16.083304 0-29.100782-13.014408-29.100782-29.100782L679.606811 211.04667c0-16.084327 13.017478-29.100782 29.100782-29.100782 16.086373 0 29.100782 13.016455 29.100782 29.100782l0 77.538981L842.27668 288.585651c16.084327 0 29.100782 13.016455 29.100782 29.100782C871.376439 333.772806 858.361007 346.787214 842.27668 346.787214z" p-id="8587" fill="#bfcbd9"></path></svg>