<?xml version="1.0" standalone="no"?><!DOCTYPE svg PUBLIC "-//W3C//DTD SVG 1.1//EN" "http://www.w3.org/Graphics/SVG/1.1/DTD/svg11.dtd"><svg t="1561462173107" class="icon" viewBox="0 0 1024 1024" version="1.1" xmlns="http://www.w3.org/2000/svg" p-id="2186" xmlns:xlink="http://www.w3.org/1999/xlink" width="32" height="32"><defs><style type="text/css"></style></defs><path d="M533 518.7c-49.5 0-89.8-40.3-89.8-89.8s40.3-89.8 89.8-89.8 89.8 40.3 89.8 89.8-40.3 89.8-89.8 89.8z m0-104.9c-8.3 0-15.1 6.8-15.1 15.1S524.7 444 533 444s15.1-6.8 15.1-15.1S541.3 413.8 533 413.8z" fill="#1296db" opacity=".8" p-id="2187"></path><path d="M533 965.8c-16.8 0-33.3-8.1-43.5-23L260.3 605.2c-74.6-109.8-76.2-252.9-4.1-364.3l1.9-2.8c9.7-14.5 21.2-28.9 35.1-43.6 2.2-2.4 4.7-4.8 7.1-7.2l1.6-1.6c16-15.7 30.6-27.9 46-38.3 11.7-7.9 24.7-15.4 39.7-22.8 3.6-1.8 7.3-3.4 10.9-4.9l2.7-1.2c9.3-4.1 18.7-7.7 27.9-10.8 5.6-1.9 11.2-3.6 16.9-5.2 8.3-2.3 17.1-4.3 27.5-6.2l3.5-0.7c4.2-0.8 8.4-1.6 12.7-2.2 14-1.9 27.7-2.9 40.7-3 29.1-0.2 52.7 23.1 52.9 52.1 0.2 29-23.1 52.7-52.1 52.9-8.6 0.1-17.9 0.8-27.7 2-2.1 0.3-4.2 0.7-6.2 1.1l-4.7 0.9c-7.4 1.4-13.3 2.7-18.7 4.2-3.9 1.1-7.7 2.3-11.5 3.5-6.2 2.1-12.6 4.5-19 7.4L440 216c-1.9 0.8-3.9 1.6-5.8 2.6-10.7 5.3-19.3 10.2-27.1 15.5-10 6.8-19.9 15.1-31.2 26.3l-1.9 1.8c-1.3 1.3-2.7 2.6-4 4-10.5 11.1-18.7 21.4-25.3 31.6l-0.9 1.4c-48.3 75.8-46.9 172.6 3.6 247l229.2 337.6c16.3 24 10 56.6-13.9 72.9-9.2 6.1-19.5 9.1-29.7 9.1z" fill="#1296db" opacity=".8" p-id="2188"></path><path d="M533 965.8c-10.2 0-20.4-2.9-29.4-9.1-24-16.3-30.2-48.9-13.9-72.9l229.2-337.6c50.8-74.9 51.9-172.4 2.8-248.4-6.6-10.1-14.8-20.4-25.2-31.5-1.4-1.4-2.7-2.8-4.1-4.1l-1.9-1.9c-11.3-11.1-21.2-19.4-31.2-26.2-7.8-5.3-16.4-10.2-27.2-15.5-1.8-0.9-3.8-1.7-5.8-2.6l-3.2-1.4c-6.6-2.9-13-5.4-19.2-7.4-3.8-1.3-7.6-2.5-11.4-3.5-5.4-1.5-11.4-2.8-18.7-4.2l-4.7-0.9c-2.1-0.4-4.1-0.8-6.2-1.1-9.7-1.3-19.1-2-27.7-2-29-0.2-52.3-23.9-52.1-52.9 0.2-28.8 23.7-52.1 52.5-52.1h0.4c13 0.1 26.6 1.1 40.7 3 4.2 0.6 8.5 1.4 12.7 2.2l3.5 0.7c10.4 1.9 19.1 3.9 27.5 6.2 5.7 1.5 11.3 3.3 16.8 5.2 9.2 3.1 18.7 6.7 28 10.8l2.5 1.1c3.6 1.6 7.2 3.1 10.8 4.9 15.1 7.5 28.1 14.9 39.8 22.9 15.4 10.4 30 22.6 45.9 38.3l1.7 1.6c2.4 2.4 4.8 4.7 7.1 7.2 14.8 15.7 26.9 30.9 36.9 46.4 72.1 111.5 70.5 254.5-4.1 364.4L576.4 942.8c-10.1 14.9-26.6 23-43.4 23z" fill="#1296db" opacity=".8" p-id="2189"></path></svg>