<?xml version="1.0" standalone="no"?><!DOCTYPE svg PUBLIC "-//W3C//DTD SVG 1.1//EN" "http://www.w3.org/Graphics/SVG/1.1/DTD/svg11.dtd"><svg t="1561912328142" class="icon" viewBox="0 0 1024 1024" version="1.1" xmlns="http://www.w3.org/2000/svg" p-id="1360" width="32" height="32" xmlns:xlink="http://www.w3.org/1999/xlink"><defs><style type="text/css"></style></defs><path d="M648.7 767.1c-66.8 77.3-132.4 131.1-149.6 131.1-43.9 0-313.6-246.3-313.6-462.6 0-173.2 140.4-313.6 313.6-313.6s313.6 140.4 313.6 313.6c0 80.7-45.3 172-101.8 252.1l-62.2 79.4z" fill="#F9CC12" p-id="1361"></path><path d="M499.1 918.2c-9.5 0-21.2-4.4-36.6-14-12.6-7.8-27.7-19-43.8-32.6-35.7-30.1-74.2-69.4-108.3-110.9-41.9-50.9-75.5-102.3-100-152.9-29.7-61.3-44.8-119.3-44.8-172.3 0-45 8.8-88.7 26.2-129.9 16.8-39.7 40.9-75.4 71.5-106s66.3-54.7 106-71.5c41.1-17.4 84.8-26.2 129.9-26.2 45 0 88.7 8.8 129.9 26.2 39.7 16.8 75.4 40.9 106 71.5s54.7 66.3 71.5 106c17.4 41.1 26.2 84.8 26.2 129.9 0 94.2-57.3 195.4-105.4 263.6l-0.6 0.8-62.5 79.8-0.3 0.4c-31.5 36.5-65.4 70.8-95.5 96.6-48.3 41.5-63.1 41.5-69.4 41.5z m-1.8-39.8z m2.5-0.1z m-0.7-736.3c-78.4 0-152.1 30.5-207.6 86s-86 129.2-86 207.6c0 115.4 82.8 234.5 132.1 295.3 31.9 39.3 68.2 77 102.1 106.2 34.2 29.4 52.9 39.1 58.9 40.9 13.4-5.1 66.5-44.7 134.6-123.5l61.6-78.7c44.7-63.5 97.8-156.6 97.8-240.2 0-78.4-30.5-152.1-86-207.6-55.4-55.5-129.1-86-207.5-86z" fill="#444D68" p-id="1362"></path><path d="M499.1 419m-130.4 0a130.4 130.4 0 1 0 260.8 0 130.4 130.4 0 1 0-260.8 0Z" fill="#186FED" p-id="1363"></path><path d="M499.1 569.4c-82.9 0-150.4-67.5-150.4-150.4s67.5-150.4 150.4-150.4S649.5 336.1 649.5 419 582 569.4 499.1 569.4z m0-260.7c-60.9 0-110.4 49.5-110.4 110.4s49.5 110.4 110.4 110.4c60.9 0 110.4-49.5 110.4-110.4S560 308.7 499.1 308.7z" fill="#444D68" p-id="1364"></path></svg>